# xmcd
#
# Track frame offsets:
#	150
#	14346
#	27345
#	46048
#	59576
#	74059
#	92541
#	106821
#	122050
#	138751
#	152915
#	170533
#	187454
#	200565
#
# Disc length: 2828 seconds
#
# Revision: 0
# Processed by: cddbd v1.5.2PL0 Copyright (c) Steve Scherf et al.
# Submitted via: EasyCDDAExtractor 10.2.0.1
#
DISCID=c80b0a0e
DTITLE=Campeão e João Viola - Vou aonde tem amor
DYEAR=2007
DGENRE=Sertanejo
TTITLE0=Vou aonde tem amor
TTITLE1=Drama da vida
TTITLE2=A coisa tá feia
TTITLE3=Meu sertão
TTITLE4=Navalha na carne
TTITLE5=Prato do dia
TTITLE6=Pagode em Brasília
TTITLE7=A vaca já foi pro brejo
TTITLE8=Azulão do reino encantado
TTITLE9=Mulher do palhaço
TTITLE10=Meu protesto
TTITLE11=Última viagem
TTITLE12=Rancho do Ipê
TTITLE13=Saudade me fez voltar
EXTD=
EXTT0=
EXTT1=
EXTT2=
EXTT3=
EXTT4=
EXTT5=
EXTT6=
EXTT7=
EXTT8=
EXTT9=
EXTT10=
EXTT11=
EXTT12=
EXTT13=
PLAYORDER=
